<svg width="28" height="28" viewBox="0 0 28 28" fill="none" xmlns="http://www.w3.org/2000/svg">
<path fill-rule="evenodd" clip-rule="evenodd" d="M4.71812 4.96757C5.71011 3.97557 7.59348 3.59578 10.2718 4.38352C10.4606 4.43905 10.6515 4.49999 10.8442 4.56629C9.62981 5.4282 8.43998 6.43116 7.31084 7.56029C6.87424 7.99689 6.4572 8.44184 6.06039 8.89302C5.51329 9.51509 5.57406 10.4629 6.19613 11.01C6.81819 11.5571 7.766 11.4963 8.3131 10.8743C8.66751 10.4713 9.04072 10.0731 9.43216 9.68161C10.9144 8.19939 12.4837 6.98835 14.0284 6.06847C15.573 6.98835 17.1423 8.19939 18.6245 9.68161C20.3065 11.3636 21.6393 13.1578 22.5937 14.9006C22.6229 14.9654 22.6568 15.0281 22.6951 15.0884C23.2348 16.1005 23.6458 17.0933 23.9226 18.0344C24.7104 20.7127 24.3306 22.596 23.3386 23.588C22.3466 24.58 20.4632 24.9598 17.7849 24.1721C17.5961 24.1166 17.4052 24.0556 17.2125 23.9893C18.4269 23.1274 19.6167 22.1245 20.7459 20.9953C21.1635 20.5777 21.5633 20.1524 21.9445 19.7213C22.4934 19.1008 22.4352 18.1528 21.8147 17.604C21.1942 17.0551 20.2462 17.1132 19.6974 17.7338C19.3568 18.1189 18.999 18.4995 18.6245 18.874C17.1423 20.3562 15.573 21.5673 14.0284 22.4871C12.4837 21.5673 10.9144 20.3562 9.43216 18.874C6.71081 16.1526 4.90357 13.1375 4.13407 10.5212C3.34634 7.84293 3.72612 5.95956 4.71812 4.96757ZM11.1183 1.50542C12.0718 1.78587 13.0479 2.17169 14.0284 2.65533C15.0088 2.17169 15.9849 1.78588 16.9384 1.50542C20.0611 0.587009 23.3277 0.71405 25.4599 2.84625C26.9191 4.30539 27.4396 6.32153 27.3296 8.40903C27.2317 10.2689 26.6353 12.2818 25.6508 14.2778C26.1345 15.2582 26.5203 16.2343 26.8007 17.1879C27.7192 20.3105 27.5921 23.5772 25.4599 25.7094C23.3277 27.8416 20.0611 27.9686 16.9384 27.0502C15.9849 26.7697 15.0088 26.3839 14.0284 25.9003C13.0479 26.3839 12.0718 26.7697 11.1183 27.0502C7.99566 27.9686 4.72899 27.8416 2.5968 25.7094C1.13867 24.2512 0.617874 22.2368 0.726838 20.1509C0.824059 18.2898 1.42065 16.2753 2.40591 14.2779C1.92226 13.2974 1.53643 12.3213 1.25597 11.3677C0.337559 8.24511 0.464601 4.97844 2.5968 2.84624C4.72899 0.71405 7.99566 0.587008 11.1183 1.50542ZM20.7459 7.56029C19.6167 6.43116 18.4269 5.4282 17.2125 4.56629C17.4052 4.49999 17.5961 4.43905 17.7849 4.38352C20.4632 3.59579 22.3466 3.97557 23.3386 4.96757C24.0228 5.65176 24.4138 6.73246 24.3338 8.2513C24.2886 9.11008 24.0921 10.0698 23.7399 11.0937C22.878 9.87928 21.875 8.68943 20.7459 7.56029ZM7.31084 20.9953C8.43998 22.1245 9.62981 23.1274 10.8442 23.9893C10.6515 24.0556 10.4606 24.1166 10.2718 24.1721C7.59348 24.9598 5.71011 24.58 4.71812 23.588C4.03437 22.9043 3.6435 21.8246 3.72275 20.3074C3.76765 19.4479 3.9642 18.4871 4.31683 17.4619C5.17874 18.6763 6.1817 19.8662 7.31084 20.9953ZM17 14.25C17 15.9069 15.6569 17.25 14 17.25C12.3431 17.25 11 15.9069 11 14.25C11 12.5931 12.3431 11.25 14 11.25C15.6569 11.25 17 12.5931 17 14.25Z" fill="currentColor"/>
</svg>
